<svg width="200" height="200" viewBox="0 0 200 200" xmlns="http://www.w3.org/2000/svg" role="img" aria-labelledby="reviuLogoTitle">
  <title id="reviuLogoTitle">Reviu — logotipo</title>
  <defs>
    <linearGradient id="badgeGradient" x1="0%" y1="0%" x2="100%" y2="100%">
      <stop offset="0%" stop-color="#4338CA"/>
      <stop offset="55%" stop-color="#6D28D9"/>
      <stop offset="100%" stop-color="#0EA5E9"/>
    </linearGradient>
    <linearGradient id="starGradient" x1="0%" y1="0%" x2="100%" y2="100%">
      <stop offset="0%" stop-color="#FDE68A"/>
      <stop offset="100%" stop-color="#F5B400"/>
    </linearGradient>
    <filter id="softShadow" x="-40%" y="-40%" width="180%" height="180%">
      <feDropShadow dx="0" dy="6" stdDeviation="10" flood-color="#1E1B4B" flood-opacity="0.35"/>
    </filter>
  </defs>

  <rect x="10" y="10" width="180" height="180" rx="46" fill="url(#badgeGradient)" filter="url(#softShadow)"/>
  <rect x="10.75" y="10.75" width="178.5" height="178.5" rx="45.25" fill="none" stroke="#ffffff" stroke-opacity="0.18" stroke-width="1.5"/>

  <path d="M64 148V54h34.5c11 0 19.6 2.7 25.8 8.1 6.3 5.4 9.4 12.8 9.4 22.3 0 6.7-1.6 12.4-4.9 17.1-3.2 4.6-7.8 8-13.7 10.1L131 148h-24.6l-19.6-33.8H86v33.8H64Zm22-50.4h10.7c5 0 8.9-1.2 11.6-3.5 2.8-2.4 4.2-5.7 4.2-10 0-4.2-1.4-7.4-4.2-9.7-2.7-2.3-6.6-3.5-11.6-3.5H86v26.7Z" fill="#ffffff"/>

  <g filter="url(#softShadow)">
    <path d="M152 118l7.2 14.9 16.4 2.2-11.9 11.5 2.9 16.3-14.6-7.8-14.6 7.8 2.9-16.3-11.9-11.5 16.4-2.2 7.2-14.9Z" fill="url(#starGradient)" stroke="#ffffff" stroke-width="3" stroke-linejoin="round"/>
  </g>
</svg>
